<mxfile host="app.diagrams.net" modified="2024-04-23T03:13:00.869Z" agent="Mozilla/5.0 (Macintosh; Intel Mac OS X 10_15_7) AppleWebKit/537.36 (KHTML, like Gecko) Chrome/123.0.0.0 Safari/537.36" etag="K2x848aFoMhvcmW7aNTZ" version="24.2.2" type="github">
  <diagram name="第 1 页" id="CdN-pma46NrUKO-HeqpK">
    <mxGraphModel dx="1434" dy="786" grid="1" gridSize="10" guides="1" tooltips="1" connect="1" arrows="1" fold="1" page="1" pageScale="1" pageWidth="827" pageHeight="1169" math="0" shadow="0">
      <root>
        <mxCell id="0" />
        <mxCell id="1" parent="0" />
        <mxCell id="Jf_VYrcn97H5wQp3Rxe1-2" value="一键多呼" style="swimlane;childLayout=stackLayout;resizeParent=1;resizeParentMax=0;startSize=20;html=1;" vertex="1" parent="1">
          <mxGeometry x="300" y="170" width="850" height="530" as="geometry" />
        </mxCell>
        <mxCell id="Jf_VYrcn97H5wQp3Rxe1-3" value="前端&lt;span style=&quot;white-space: pre;&quot;&gt;&#x9;&lt;/span&gt;" style="swimlane;startSize=20;html=1;" vertex="1" parent="Jf_VYrcn97H5wQp3Rxe1-2">
          <mxGeometry y="20" width="240" height="510" as="geometry" />
        </mxCell>
        <mxCell id="Jf_VYrcn97H5wQp3Rxe1-11" value="发起多呼" style="rounded=0;whiteSpace=wrap;html=1;" vertex="1" parent="Jf_VYrcn97H5wQp3Rxe1-3">
          <mxGeometry x="60" y="60" width="120" height="60" as="geometry" />
        </mxCell>
        <mxCell id="Jf_VYrcn97H5wQp3Rxe1-20" value="" style="edgeStyle=orthogonalEdgeStyle;rounded=0;orthogonalLoop=1;jettySize=auto;html=1;" edge="1" parent="Jf_VYrcn97H5wQp3Rxe1-3" source="Jf_VYrcn97H5wQp3Rxe1-17" target="Jf_VYrcn97H5wQp3Rxe1-19">
          <mxGeometry relative="1" as="geometry" />
        </mxCell>
        <mxCell id="Jf_VYrcn97H5wQp3Rxe1-17" value="多呼中展示" style="rounded=0;whiteSpace=wrap;html=1;" vertex="1" parent="Jf_VYrcn97H5wQp3Rxe1-3">
          <mxGeometry x="60" y="180" width="120" height="60" as="geometry" />
        </mxCell>
        <mxCell id="Jf_VYrcn97H5wQp3Rxe1-19" value="接通电话展示" style="rounded=0;whiteSpace=wrap;html=1;" vertex="1" parent="Jf_VYrcn97H5wQp3Rxe1-3">
          <mxGeometry x="60" y="300" width="120" height="60" as="geometry" />
        </mxCell>
        <mxCell id="Jf_VYrcn97H5wQp3Rxe1-4" value="call-admin" style="swimlane;startSize=20;html=1;" vertex="1" parent="Jf_VYrcn97H5wQp3Rxe1-2">
          <mxGeometry x="240" y="20" width="300" height="510" as="geometry" />
        </mxCell>
        <mxCell id="Jf_VYrcn97H5wQp3Rxe1-13" value="&lt;div style=&quot;background-color: rgb(255, 255, 254); font-family: Menlo, Monaco, &amp;quot;Courier New&amp;quot;, monospace; line-height: 24px; white-space: pre;&quot;&gt;triggerMultipleCalling&lt;/div&gt;" style="rounded=0;whiteSpace=wrap;html=1;" vertex="1" parent="Jf_VYrcn97H5wQp3Rxe1-4">
          <mxGeometry x="56.25" y="60" width="187.5" height="60" as="geometry" />
        </mxCell>
        <mxCell id="Jf_VYrcn97H5wQp3Rxe1-6" value="YTalk" style="swimlane;startSize=20;html=1;" vertex="1" parent="Jf_VYrcn97H5wQp3Rxe1-2">
          <mxGeometry x="540" y="20" width="310" height="510" as="geometry" />
        </mxCell>
        <mxCell id="Jf_VYrcn97H5wQp3Rxe1-23" style="edgeStyle=orthogonalEdgeStyle;rounded=0;orthogonalLoop=1;jettySize=auto;html=1;dashed=1;" edge="1" parent="Jf_VYrcn97H5wQp3Rxe1-6" source="Jf_VYrcn97H5wQp3Rxe1-15" target="Jf_VYrcn97H5wQp3Rxe1-21">
          <mxGeometry relative="1" as="geometry" />
        </mxCell>
        <mxCell id="Jf_VYrcn97H5wQp3Rxe1-24" value="出现接通" style="edgeLabel;html=1;align=center;verticalAlign=middle;resizable=0;points=[];" vertex="1" connectable="0" parent="Jf_VYrcn97H5wQp3Rxe1-23">
          <mxGeometry x="-0.0444" relative="1" as="geometry">
            <mxPoint as="offset" />
          </mxGeometry>
        </mxCell>
        <mxCell id="Jf_VYrcn97H5wQp3Rxe1-15" value="&lt;div style=&quot;background-color: rgb(255, 255, 254); font-family: Menlo, Monaco, &amp;quot;Courier New&amp;quot;, monospace; line-height: 24px; white-space: pre;&quot;&gt;&lt;div style=&quot;background-color:#2b2b2b;color:#a9b7c6&quot;&gt;&lt;pre style=&quot;font-family:&#39;JetBrains Mono&#39;,monospace;font-size:9.0pt;&quot;&gt;&lt;span style=&quot;color:#ffc66d;&quot;&gt;multiCallV2&lt;/span&gt;&lt;/pre&gt;&lt;/div&gt;&lt;/div&gt;" style="rounded=0;whiteSpace=wrap;html=1;" vertex="1" parent="Jf_VYrcn97H5wQp3Rxe1-6">
          <mxGeometry x="50" y="60" width="187.5" height="60" as="geometry" />
        </mxCell>
        <mxCell id="Jf_VYrcn97H5wQp3Rxe1-21" value="&lt;div style=&quot;background-color: rgb(255, 255, 254); font-family: Menlo, Monaco, &amp;quot;Courier New&amp;quot;, monospace; line-height: 24px; white-space: pre;&quot;&gt;&lt;div style=&quot;background-color:#2b2b2b;color:#a9b7c6&quot;&gt;&lt;pre style=&quot;font-family:&#39;JetBrains Mono&#39;,monospace;font-size:9.0pt;&quot;&gt;socket 唤起多呼&lt;/pre&gt;&lt;/div&gt;&lt;/div&gt;" style="rounded=0;whiteSpace=wrap;html=1;" vertex="1" parent="Jf_VYrcn97H5wQp3Rxe1-6">
          <mxGeometry x="50" y="300" width="187.5" height="60" as="geometry" />
        </mxCell>
        <mxCell id="Jf_VYrcn97H5wQp3Rxe1-12" style="edgeStyle=orthogonalEdgeStyle;rounded=0;orthogonalLoop=1;jettySize=auto;html=1;entryX=0;entryY=0.5;entryDx=0;entryDy=0;" edge="1" parent="Jf_VYrcn97H5wQp3Rxe1-2" source="Jf_VYrcn97H5wQp3Rxe1-11" target="Jf_VYrcn97H5wQp3Rxe1-13">
          <mxGeometry relative="1" as="geometry">
            <mxPoint x="240" y="110" as="targetPoint" />
          </mxGeometry>
        </mxCell>
        <mxCell id="Jf_VYrcn97H5wQp3Rxe1-16" value="" style="edgeStyle=orthogonalEdgeStyle;rounded=0;orthogonalLoop=1;jettySize=auto;html=1;" edge="1" parent="Jf_VYrcn97H5wQp3Rxe1-2" source="Jf_VYrcn97H5wQp3Rxe1-13" target="Jf_VYrcn97H5wQp3Rxe1-15">
          <mxGeometry relative="1" as="geometry" />
        </mxCell>
        <mxCell id="Jf_VYrcn97H5wQp3Rxe1-18" style="edgeStyle=orthogonalEdgeStyle;rounded=0;orthogonalLoop=1;jettySize=auto;html=1;entryX=1;entryY=0.5;entryDx=0;entryDy=0;exitX=0;exitY=0.5;exitDx=0;exitDy=0;" edge="1" parent="Jf_VYrcn97H5wQp3Rxe1-2" source="Jf_VYrcn97H5wQp3Rxe1-21" target="Jf_VYrcn97H5wQp3Rxe1-19">
          <mxGeometry relative="1" as="geometry">
            <mxPoint x="680" y="230" as="sourcePoint" />
          </mxGeometry>
        </mxCell>
        <mxCell id="Jf_VYrcn97H5wQp3Rxe1-22" style="edgeStyle=orthogonalEdgeStyle;rounded=0;orthogonalLoop=1;jettySize=auto;html=1;entryX=1;entryY=0.5;entryDx=0;entryDy=0;exitX=0.5;exitY=1;exitDx=0;exitDy=0;" edge="1" parent="Jf_VYrcn97H5wQp3Rxe1-2" source="Jf_VYrcn97H5wQp3Rxe1-13" target="Jf_VYrcn97H5wQp3Rxe1-17">
          <mxGeometry relative="1" as="geometry" />
        </mxCell>
        <mxCell id="Jf_VYrcn97H5wQp3Rxe1-14" style="edgeStyle=orthogonalEdgeStyle;rounded=0;orthogonalLoop=1;jettySize=auto;html=1;entryX=0;entryY=0.5;entryDx=0;entryDy=0;" edge="1" parent="1" source="Jf_VYrcn97H5wQp3Rxe1-7" target="Jf_VYrcn97H5wQp3Rxe1-11">
          <mxGeometry relative="1" as="geometry" />
        </mxCell>
        <mxCell id="Jf_VYrcn97H5wQp3Rxe1-7" value="坐席" style="shape=umlActor;verticalLabelPosition=bottom;verticalAlign=top;html=1;outlineConnect=0;" vertex="1" parent="1">
          <mxGeometry x="160" y="250" width="30" height="60" as="geometry" />
        </mxCell>
      </root>
    </mxGraphModel>
  </diagram>
</mxfile>
